<?xml version="1.0" encoding="UTF-8"?>
<svg width="800" height="600" version="1.1" viewBox="0 0 800 600" xmlns="http://www.w3.org/2000/svg">
 <g fill="#B71C1C">
  <path d="m400 100c-82.843 0-150 67.157-150 150 0 82.843 67.157 150 150 150s150-67.157 150-150c0-82.843-67.157-150-150-150zm0 270c-66.274 0-120-53.726-120-120s53.726-120 120-120 120 53.726 120 120-53.726 120-120 120z"/>
  <path d="m400 160c-49.706 0-90 40.294-90 90 0 49.706 40.294 90 90 90s90-40.294 90-90c0-49.706-40.294-90-90-90zm0 150c-33.137 0-60-26.863-60-60s26.863-60 60-60 60 26.863 60 60-26.863 60-60 60z"/>
  <path d="m400 200c-27.614 0-50 22.386-50 50s22.386 50 50 50 50-22.386 50-50-22.386-50-50-50z"/>
  <path d="m250 400h300v30h-300z"/>
  <path d="m275 450h250v30h-250z"/>
 </g>
</svg>